<?xml version="1.0" encoding="utf-8"?>
<!-- Generator: Adobe Illustrator 19.0.0, SVG Export Plug-In . SVG Version: 6.00 Build 0)  -->
<svg version="1.1" id="Layer_1" xmlns="http://www.w3.org/2000/svg" xmlns:xlink="http://www.w3.org/1999/xlink" x="0px" y="0px"
	 viewBox="0 0 1727 647" style="enable-background:new 0 0 1727 647;" xml:space="preserve">
<style type="text/css">
	.st0{fill:#FDFDFD;}
	.st1{fill:#EDEDED;}
	.st2{fill:#FEFEFE;}
</style>
<g>
	<path class="st0" d="M1,213C1,143.7,1,74.4,0.9,5.2c0-3.8,1-4.3,4.4-4.3C134.5,1,263.8,1,393,1c1.8,2,1.3,4.4,1.3,6.7
		c0,14,0,28,0,42c0,5.3,0.5,5.6,5.6,6c27,2,52.9,8.4,77.6,19.6c21,9.6,40.6,21.5,58.1,36.7c20.5,17.7,37.3,38.4,50.4,62.2
		c14.3,26.1,24.1,53.8,27.8,83.4c0.5,4,0.8,7.9,1.3,11.9c0.4,2.8,1.4,4.2,4.4,4.2c15,0,30-0.1,45,0c3.9,0,4.3-2.4,4.1-5.3
		c-0.8-14-2.8-27.8-5.8-41.5c-10.3-46.4-30.8-87.9-61.7-124c-34-39.7-75.5-68.5-125.1-85.6c-20.3-7-41-11.7-62.3-14
		c-1.5-0.2-3.6,0.3-3.7-2.3c437.8,0,875.7,0,1313.5-0.1c3.7,0,4.6,0.8,4.6,4.6c-0.1,60.2-0.1,120.3-0.1,180.5
		c-2,1.7-4.4,1.4-6.7,1.4c-13.2,0-26.3,0-39.5,0c-6.1,0-6.4,0.3-6.4,6.6c0,51.5,0,103,0,154.4c0,2,0.1,4-0.1,6
		c-0.1,1.6,0.2,3.7-1.6,4.4c-1.9,0.7-2.9-1.2-3.9-2.4c-3.2-4.3-7-8.1-10.8-11.8c-16.9-16.6-37.5-25.5-60.9-28.3
		c-17.4-2-34.6-1-51.4,4.1c-26.6,8.2-46.2,25.2-60.3,48.8c-13.2,22.2-19.5,46.5-23,71.8c-2.8,20.1-2.7,40.3-1.8,60.3
		c1.3,27.9,6.3,55.3,18.7,80.8c16.7,34.4,42.9,56.7,81.5,63.1c1.9,0.3,4.6-0.4,5.2,2.6c-86,0-172,0-258,0c0.3-2.7,2.6-2.2,4.2-2.3
		c22.1-2,43.1-8.1,63.4-17.2c3.6-1.6,5.1-3.8,5-7.6c-0.1-11.3,0-22.7-0.1-34c0-5.8-0.7-6.3-6-3.9c-15.7,7-31.8,12.9-48.9,15.7
		c-23.6,3.8-47.3,6.4-70.9,0.1c-24.3-6.5-41.2-21.6-51-44.8c-7.2-17-10-34.8-11.1-53c-0.6-9.7,0.2-10.2,9.8-10.2c61,0,122,0,183,0
		c1.7,0,3.3,0,5,0c2.6,0,4.1-1.1,4.1-3.8c0.1-29,1.7-58-7.7-86.2c-9.3-27.9-24.5-51.3-49.7-67.4c-17-10.8-35.8-16.3-55.7-17.6
		c-19.6-1.3-39,0.9-57.5,8.1c-28.1,11-48.3,30.9-62.4,57.2c-12.8,23.7-19.4,49.2-21.4,76c-2.1,28.8-1.9,57.6,5.8,85.8
		c6.9,25.2,18.1,48.1,36.8,66.6c19.5,19.3,43.4,30.6,70.4,35.2c2.6,0.4,5.3,0.9,7.9,1.2c1.5,0.2,3.5-0.1,3.7,2.3c-93,0-186,0-279,0
		c0.3-2.7,2.6-2.2,4.2-2.3c22.7-1.8,44.2-8,64.8-17.5c3.2-1.5,4.6-3.4,4.6-6.9c-0.1-11.8,0-23.7-0.1-35.5c0-4.5-0.8-5-5.1-3.2
		c-8.8,3.7-17.5,7.3-26.6,10.2c-16,5.1-32.4,7.4-49.1,8.8c-15.1,1.3-30,0.8-44.6-2.9c-23.6-6-40.5-20.4-50.5-42.6
		c-8-17.7-11-36.6-12-55.9c-0.5-9.2,0.3-9.7,9.4-9.7c61.3,0,122.7,0,184,0c1.7,0,3.3,0,5,0c2.2-0.1,3.5-1,3.5-3.3
		c0.6-33.5,1.4-67.1-12.3-98.9c-18.3-42.2-49.6-67.1-95.9-72.1c-28.3-3-55.3,1.2-79.9,16.1c-21.9,13.2-37.6,32.2-48.3,55.2
		c-13.2,28.3-18.8,58.1-18.8,89.2c0,20,0.5,40,5.1,59.6c6.2,26.4,17.1,50.6,36,70.3c19.9,20.8,44.7,32.7,72.9,37.7
		c2.6,0.5,5.3,0.9,7.9,1.2c1.5,0.2,3.5-0.1,3.7,2.3c-313.2,0-626.3,0-939.5,0.1c-3.7,0-4.6-0.8-4.6-4.6C1,501,1,358.5,1,216
		c2.9,0.4,2.8,2.9,3.5,4.8c3,8.5,5.7,17.1,8.6,25.6c43,128.6,85.8,257.4,128.7,386c2.7,8.2,2.7,8.2,11.5,8.2c12.8,0,25.7,0,38.5,0
		c6.7,0,6.7,0,8.8-6.3c32.7-96,64.3-192.5,96.6-288.7c13.6-40.6,27.4-81.1,40.9-121.8c0.5-1.6,1-3.2,1.6-4.7
		c1.4-3.5,0.3-4.8-3.5-4.8c-15.5,0.1-31,0.1-46.5,0c-4.2,0-5.8,2.2-6.9,5.7c-7.5,24-15.2,47.9-22.8,71.9
		c-8.5,26.8-17.2,53.6-25.6,80.5c-15.9,51-33.1,101.7-48,153.1c-4.3,14.7-8,29.6-11.4,44.6c-0.5,2.3-1,4.6-1.7,6.8
		c-0.4,1.2-0.4,3-2.1,2.9c-1.3-0.1-1.5-1.6-1.8-2.7c-1.5-5.3-2.9-10.6-4.1-16c-7.3-32.9-17.1-65.1-27.3-97.2
		c-19.8-62.1-39.6-124.1-59.2-186.2c-6-18.9-12-37.8-18.1-56.6c-2.2-6.7-2.3-6.7-9.6-6.7c-14.5,0-29,0-43.5,0
		C5.4,214.3,3,214.7,1,213z"/>
	<path class="st1" d="M1567,648c-6.9-1.6-13.8-2.8-20.6-4.8c-27.2-8-47.1-25.2-61.4-49.2c-12.2-20.6-18.4-43.1-22.2-66.6
		c-3.5-22-3.6-44.1-2.6-66.1c1.3-29.5,7.1-58.2,20.6-84.9c11.1-21.7,26.6-39.3,48.5-50.5c12.2-6.2,25.2-9.7,39-11.1
		c17.6-1.8,34.7-0.6,51.6,4.7c21.4,6.7,38.3,19.5,51.8,37.1c0.5,0.6,0.6,1.6,1.8,1.6c0.9-1.6,0.4-3.5,0.4-5.2
		c0-53.7,0.1-107.3-0.1-161c0-4.8,1.3-6.2,6.1-6.1c16,0.3,32,0.1,48,0.1c0,152,0,304,0,456c-1.6,1.5-3.7,1.4-5.7,1.4
		c-13.5,0-26.9,0.1-40.4,0c-6.3,0-7.2-1-7.3-7.3c-0.1-10.8,0-21.6-0.1-33.7c-3.7,5.2-7,9.2-10.4,13.2
		c-13.3,15.3-30.1,24.8-49.4,30.4c-5.1,1.5-10.5,0.9-15.7,2C1588.3,648,1577.7,648,1567,648z"/>
	<path class="st1" d="M1,213c17.8,0,35.7,0.1,53.5-0.1c3.8,0,5.5,1,6.6,4.7c13.3,42.1,26.9,84.1,40.3,126.2
		c9.1,28.5,18.2,56.9,27.2,85.4c13,41.6,27.2,82.9,36.9,125.5c1.8,8.1,3.8,16.1,6,25.3c9.5-44.9,23.1-87.4,36.9-129.9
		c9.3-28.7,18.4-57.6,27.5-86.4c11.8-37.2,23.6-74.4,35.4-111.5c3.6-11.4,7.4-22.7,10.6-34.2c1.2-4.2,3.3-5.3,7.5-5.2
		c16,0.2,32,0.1,48,0.1c5.7,0,5.7,0,3.9,5.3c-25.6,76.6-51.3,153.1-76.9,229.7c-17.2,51.5-34.4,103.1-51.6,154.6
		c-4,12-8.2,23.9-12.2,35.9c-0.9,2.6-2.1,3.6-5,3.6c-16.2-0.2-32.3-0.2-48.5,0c-3.6,0-4.4-1.8-5.3-4.5c-18-54.1-36-108.2-54-162.2
		C59.6,390.3,31.3,305.1,2.8,220c-0.5-1.4-0.5-3-1.8-4C1,215,1,214,1,213z"/>
	<path class="st1" d="M945,648c-6.8-1.3-13.6-2.3-20.3-3.9c-21.3-5.1-40.5-14.3-57.2-28.8c-17.3-15-28.8-33.6-37.2-54.5
		c-5.9-14.7-9.5-30.1-11.1-45.7c-2-19.7-1.9-39.4-0.3-59.2c1.6-20.8,6.2-40.9,14.2-60.2c12.6-30.7,32.4-55.2,62.8-69.8
		c12.6-6.1,26-9.5,40.1-10.9c19.1-2,37.8-0.8,56,5.2c36.3,11.8,59.9,37,73.2,72.3c7.9,20.9,11.4,42.5,10.9,64.8
		c-0.2,10-0.2,20,0.1,30c0.1,4-1.2,5-5.1,5c-38.8-0.1-77.7-0.1-116.5-0.1c-25.2,0-50.3,0.1-75.5-0.1c-3.9,0-5.2,1-5.1,5
		c0.9,21.9,4,43.4,14.2,63c11.7,22.5,30.6,35.4,55.6,39c38,5.5,74.1-1.5,109-16.8c10.7-4.7,9.2-4.9,9.3,5.8
		c0.1,11.7-0.1,23.3,0.1,35c0,3.2-1.3,4.7-4.1,5.9c-17,7.7-34.5,13.6-53,16.5c-4.4,0.7-8.8,1.7-13.3,1.6c-1.6,0-3.4-0.6-4.7,1
		C973,648,959,648,945,648z"/>
	<path class="st1" d="M1266,648c-7.1-1.3-14.3-2.4-21.2-4.1c-21.1-5.2-40-14.5-56.6-29c-22.9-20.1-35.4-45.9-43.2-74.7
		c-7-25.9-7.2-52.3-5.7-78.6c1.6-28.8,8.3-56.7,22.6-82.3c19.3-34.5,47.4-57,87.3-63.4c24.6-3.9,48.6-2.3,71.8,7
		c25.1,10,43.8,27.3,56.7,50.8c10.6,19.3,16.5,40,18.4,62c1.5,17.6,0.3,35.3,0.9,52.9c0.1,2.6-1,3.7-3.5,3.5c-1.3-0.1-2.7,0-4,0
		c-62.8,0-125.6,0.1-188.4-0.1c-4.7,0-6.4,1.1-6.2,6c1,20.7,4,41,13.1,59.8c11.5,23.6,30.7,37.3,56.7,41.4c9,1.4,18.1,2.3,27.2,1.9
		c28.2-1.4,55.5-6.6,81.3-18.5c11.6-5.4,9.6-4.9,9.7,6.1c0.1,11.2-0.1,22.3,0.1,33.5c0.1,3.7-1.1,5.7-4.5,7.2
		c-19.6,8.8-40.1,14.7-61.4,17.7c-2.7,0.4-5.7-1-8.2,1C1294.7,648,1280.3,648,1266,648z"/>
	<path class="st1" d="M410,1c6.1,1,12.3,2,18.4,3c23.6,3.6,46.2,10.4,68.1,19.8c21.8,9.4,42.1,21.2,60.8,35.8
		c18.7,14.5,35.5,30.9,50.3,49.3c14.5,18,26.6,37.3,36.3,58.2c11.2,24.2,19.4,49.3,23.1,75.9c1.3,9.2,2.8,18.3,3,27.6
		c0.1,3.6-1.2,4.5-4.6,4.5c-15.7-0.1-31.3-0.2-47,0c-3.5,0-4.3-1.1-4.6-4.5c-2.5-28.3-9.4-55.4-21.6-81.2
		c-13.1-27.7-30.7-52.1-53.3-72.7c-12.6-11.6-26.5-21.5-41.5-29.8c-19.4-10.8-39.7-19.4-61.4-24.2c-12.6-2.8-25.3-5.4-38.2-5.5
		c-3.8,0-4.9-1.5-4.9-5.1c0.1-17,0.1-34,0.1-51C398.7,1,404.3,1,410,1z"/>
	<path class="st2" d="M1599,648c7.3-2,14.8-2.9,22-5.4c21.3-7.4,38.1-20.5,50.9-38.9c0.8-1.2,1.7-2.4,2.7-3.6
		c0.2-0.2,0.6-0.2,1.5-0.4c0,11.1,0,22,0,32.8c0,9.4,0,9.4,9.5,9.4c14.2,0,28.3,0,42.5,0c1.1,5.1-0.9,6.2-6,6.1
		C1681,647.9,1640,648,1599,648z"/>
	<path class="st1" d="M641.4,606.1c3.5-13.9,6.6-27,10.1-40c9.1-34.2,19.5-67.9,30.7-101.5c14.6-43.8,28.7-87.8,43-131.7
		c4.2-12.9,4.1-12.9,18-12.9c11.8,0,23.7,0,35.5,0c6.9,0,6.9,0,4.7,6.3c-14.9,43.9-29.9,87.7-44.8,131.6
		c-11.8,34.6-23.5,69.2-35.3,103.8c-8.6,25.2-17.2,50.3-25.7,75.5c-1.2,3.6-2.8,5-6.6,4.9c-19.7-0.2-39.3-0.2-59,0
		c-4,0-5.9-1.4-7.1-5.2c-8.1-24.4-16.4-48.8-24.7-73.2c-14.3-42.1-28.7-84.3-43.1-126.4c-8.6-25.3-17.3-50.6-26-75.9
		c-4.3-12.4-8.5-24.8-12.8-37.2c-1.1-3.2-0.6-4.3,3.1-4.3c16,0.2,32,0.1,48,0c3,0,4.4,1.1,5.3,3.9c15.3,47.1,30.7,94.1,46,141.2
		c9.8,30.3,19.7,60.6,27.7,91.4c4.1,15.7,9.2,31.1,11.9,47.2C640.2,604.2,640.7,604.7,641.4,606.1z"/>
	<path class="st1" d="M447,481.3c0,51.6-0.1,103.3,0.1,154.9c0,4.5-1.1,6-5.8,5.9c-14.5-0.3-29-0.2-43.5,0c-3.6,0-4.9-0.8-4.9-4.7
		c0.1-104.3,0.1-208.6,0-312.8c0-4,1.6-4.6,5-4.6c14.7,0.2,29.3,0.2,44,0c4.4-0.1,5.2,1.5,5.2,5.5C447,377.4,447,429.3,447,481.3z"
		/>
	<path class="st1" d="M393,132.3c0-7.7,0.1-15.3-0.1-23c-0.1-2.7,0.4-3.7,3.5-3.4c18.5,1.7,36.2,6.3,53.3,13.4
		c16.4,6.8,31.4,16,45,27.2c17.2,14.1,31.4,30.9,42.6,50.2c9.9,17.1,16.9,35.3,20.9,54.6c1.4,7,2.5,14,3.1,21.1
		c0.2,2.3-0.5,2.6-2.3,2.6c-16.3,0-32.7-0.1-49,0.1c-3.4,0-3.3-2.4-3.6-4.3c-1.4-8.9-3.5-17.5-6.4-26
		c-10.2-29.3-29.5-51.2-55.5-67.4c-14.3-8.9-29.9-14.2-46.6-16.3c-3.4-0.4-5.2-1.7-5.1-5.7C393.2,147.6,393,139.9,393,132.3z"/>
	<path class="st1" d="M390,246.1c0.3-3.8-0.1-7.5,0.7-11.4c2.1-10.2,8.1-17,17.7-20.4c9.9-3.5,19.9-2.9,29.4,1.6
		c9.6,4.6,13.6,13.5,14.9,23.3c1.2,8.7,0.8,17.7-3.8,25.7c-5.3,9.2-13.2,14.5-24.2,15c-9.5,0.4-18.4-0.5-25.9-7.5
		C391.2,265.2,389.4,256.1,390,246.1z"/>
	<path class="st2" d="M1516,483.6c-0.4-26.9,2-52.1,10.8-76.3c6.1-16.6,15.1-31.1,31.2-39.9c13.5-7.3,27.9-9.6,43.2-7.7
		c8.9,1.1,17.7,2.3,26,5.8c13.4,5.6,23.3,15,30.2,27.6c7.9,14.1,11.6,29.4,13.6,45.4c2.5,19.5,3.6,39,2.7,58.6
		c-1,21.8-2.8,43.6-11.4,64.2c-8.6,20.3-22.8,33.9-44.6,38.9c-16.4,3.8-32.9,4.3-49.1-0.5c-20.1-6-32.8-20-40.6-38.9
		c-6.9-16.9-9.7-34.6-11.3-52.7C1516,499.4,1516.4,490.8,1516,483.6z"/>
	<path class="st2" d="M946.2,448c-22.1,0-44.3-0.1-66.4,0.1c-4.3,0-5.2-1.7-4.7-5.3c1.9-13.5,4.3-26.8,9.7-39.4
		c10.7-25,28.3-40.5,56.3-43.6c17.4-1.9,33.3,0.7,47.6,11c9.7,7,16.5,16.4,20.9,27.4c5.7,14.3,7.6,29.4,8.5,44.7
		c0.3,4.4-1.5,5.2-5.4,5.2C990.5,447.9,968.3,448,946.2,448z"/>
	<path class="st2" d="M1267.4,448c-22.2,0-44.3-0.1-66.5,0.1c-3.4,0-5.5-0.5-4.9-4.6c2.2-14.9,4.4-30,11.2-43.6
		c11.3-22.9,28.7-37.5,55.2-40.1c16.7-1.6,32,0.8,46.1,10c11.8,7.7,18.7,19.1,23.5,31.9c4.9,13.2,6.3,27,7.1,40.9
		c0.3,4.6-1.4,5.5-5.7,5.5C1311.4,447.9,1289.4,448,1267.4,448z"/>
</g>
</svg>
