<?xml version="1.0" encoding="utf-8"?>
<!-- Generator: Adobe Illustrator 19.0.0, SVG Export Plug-In . SVG Version: 6.00 Build 0)  -->
<svg version="1.1" id="Layer_1" xmlns="http://www.w3.org/2000/svg" xmlns:xlink="http://www.w3.org/1999/xlink" x="0px" y="0px"
	 viewBox="0 0 612 792" style="enable-background:new 0 0 612 792;" xml:space="preserve">
<style type="text/css">
	.st0{fill:#FFFFFF;}
</style>
<g>
	<path class="st0" d="M1229,805c-615,0-1230,0-1845,0c0-272.3,0-544.7,0-817c615,0,1230,0,1845,0C1229,260.3,1229,532.7,1229,805z
		 M1111.9,275.3c1.6,58.4-2.6,116.5,3.1,174.9c-1.9-0.6-3.5-1.5-4.5-2.8c-29.1-38.1-68.3-49.7-114-41.7c-37.3,6.6-62.5,29.5-78.7,63
		c-12.5,25.7-17.6,53.2-19.2,81.6c-1.7,30.3-0.3,60.3,7.4,89.7c6.8,25.9,18.1,49.2,37.5,68.3c39.7,39.1,127.3,43.5,167-17.3
		c0.8-1.2,2-2.2,3.7-4.1c2.9,15.4,5.5,29.6,8.1,43.7c14.6,0,28.8,0,43.1,0c0-152,0-303.5,0-455.4
		C1147.8,275.3,1130.4,275.3,1111.9,275.3z M-219.6,302.5c-18.4,0-35.9,0.1-53.3-0.1c-3.7,0-5.4,0.9-6.6,4.7
		c-20.9,66.1-42.2,132.1-62.9,198.3c-14.4,46.2-28.2,92.6-42.1,139c-2.4,8.1-3.9,16.4-6.2,25.9c-0.7-2.6-1.1-3.9-1.4-5.2
		c-6.7-25.8-12.3-51.9-20.2-77.3c-29.3-94-59.4-187.7-89.2-281.6c-1-3.2-2.6-4-5.7-3.9c-16.3,0.1-32.7,0.1-49,0.1
		c-1.3,0-2.5,0.2-4.2,0.4c0.5,2,0.9,3.5,1.4,5.1c26.8,80.5,53.6,161,80.4,241.4c19.5,58.7,39.1,117.3,58.5,176.1
		c1.5,4.4,3.4,5.8,8,5.7c14.8-0.3,29.7-0.3,44.5,0c3.7,0.1,5.2-1.2,6.2-4.6c3.5-11.3,7.4-22.4,11.2-33.6
		c37.6-112.3,75.1-224.7,112.7-337C-231.6,338.4-225.7,320.9-219.6,302.5z M514,580.5c0-11.5,0-22.5,0-33.4
		c-0.1-16.7-1.9-33.2-6-49.4c-16.4-65.8-71.7-102.8-138.9-92.8c-43.8,6.5-73.9,31.3-93.2,70.2c-12.4,25-18,51.8-19.4,79.4
		c-1.6,30.5,0.2,60.6,10.5,89.7c15.2,43.1,43.3,73.9,87.9,86.2c48.7,13.5,96.3,7.6,142-13.6c1.4-0.6,2.5-3.3,2.6-5.1
		c0.2-13.2,0.1-26.3,0.1-39.5c0-1.3-0.3-2.5-0.4-3.9c-0.9,0.3-1.3,0.4-1.8,0.6c-1.2,0.5-2.5,1-3.7,1.6
		c-34.8,16-71.3,22.8-109.4,18.4c-26.3-3-46.6-16.1-58.9-40.1c-7-13.8-10.6-28.7-12.3-44c-0.9-7.8-1.4-15.8-2.1-24.2
		C379.1,580.5,446.3,580.5,514,580.5z M835,580.5c0-12.3,0-24.1,0-36c-0.1-17.4-2.2-34.5-7.1-51.3c-19.3-66-72-96.3-134.8-88.9
		c-45.9,5.4-77.4,31.4-97.1,72.4c-12.4,25.9-17.6,53.7-18.8,82.2c-1.2,26.9,0.7,53.6,8.9,79.5c16.1,50.8,49,84.3,101.9,94.9
		c40.7,8.1,80.9,3.9,119.5-12c13.3-5.5,13.3-5.5,13.3-19.7c0-11.1,0-22.2,0-33.8c-2,0.8-3.4,1.3-4.7,1.9
		c-23.9,11.2-49,18.1-75.4,19.7c-14.7,0.9-29.3,1.2-43.7-2.1c-25.8-5.9-43.6-21.2-53.6-45.6c-8-19.5-10.4-40-11-61.4
		C700.1,580.5,767.3,580.5,835,580.5z M45.2,731c19.8,0,39.5,0,59.1,0c8.9,0,8.9,0,11.8-8.5c32.3-94.4,64.5-188.9,96.8-283.3
		c3.4-9.9,6.7-19.7,10.1-30c-17.2,0-33.7,0.2-50.1-0.1c-4.2-0.1-5.7,1.4-6.9,5.1c-12.7,39.6-25.6,79.1-38.6,118.6
		C110.1,585.4,93,638.1,80.8,692.2c-0.2,1.1-1,2-2,3.9c-2.3-9.4-4.3-17.6-6.3-25.8c-12.7-50-28.8-99-44.9-148
		C15.7,486,3.9,449.7-7.9,413.3c-1-3-2.3-4.3-5.5-4.2c-6.7,0.2-13.3,0.1-20,0.1c-10.1,0-20.3,0-31.3,0C-28,516.7,8.5,623.5,45.2,731
		z M81.2,355.9c4.8,0,9.7,0.1,14.5,0c7.9-0.3,13.6-6.2,13-14c-0.8-9.8-1.4-19.6-3.1-29.3c-14.9-87.1-60.4-154-135-200.8
		c-40.4-25.4-85-38.6-132.6-41.3c-8.5-0.5-14.6,4.9-14.7,13.3c-0.2,9.5-0.2,19,0,28.5c0.1,7.2,5,12.2,12.1,12.9c3,0.3,6,0.5,9,0.8
		c65.4,7.3,119.4,36,160.3,87.7c29.8,37.7,46,81.1,49.2,129.2c0.6,8.5,5.4,12.9,13.9,13.1C72.2,355.9,76.7,355.9,81.2,355.9z
		 M-115.5,730.8c0-107.4,0-214.3,0-321.4c-17.9,0-35.4,0-53.2,0c0,107.3,0,214.3,0,321.4C-150.8,730.8-133.4,730.8-115.5,730.8z
		 M-21.8,355.9c4.2,0,8.3,0,12.5,0c9.6-0.1,15-6.2,14.1-15.9C2.9,321.1-1.2,302.8-9,285.5C-38.8,220.1-89.6,183-161,174.3
		c-9.7-1.2-15.8,4.4-15.9,14c-0.1,8.5-0.4,17,0.2,25.5c0.2,3.4,1.6,7.8,4,9.6c3.3,2.5,8,3.7,12.3,4.3c18.8,2.6,36.4,8.3,52.2,18.8
		c35,23.1,55.4,55.3,60,97.3c0.9,7.8,5.6,11.9,13.4,12C-30.5,355.9-26.2,355.9-21.8,355.9z M-110.5,320.7c0-0.3,0-2.2-0.2-4
		c-1.7-17.3-12.7-27.5-30-27.9c-18-0.4-29.4,8.8-31.8,26.2c-0.7,4.7-0.5,9.7,0,14.4c2.3,21.3,20.4,29.2,37.5,26
		C-118.8,352.4-110.5,340.8-110.5,320.7z"/>
	<path d="M1111.9,275.3c18.5,0,35.9,0,53.7,0c0,151.8,0,303.4,0,455.4c-14.3,0-28.5,0-43.1,0c-2.6-14.1-5.3-28.3-8.1-43.7
		c-1.8,1.9-3,2.8-3.7,4.1c-39.6,60.8-127.2,56.4-167,17.3c-19.4-19.1-30.8-42.4-37.5-68.3c-7.7-29.4-9.1-59.5-7.4-89.7
		c1.6-28.3,6.7-55.9,19.2-81.6c16.2-33.4,41.4-56.4,78.7-63c45.6-8,84.8,3.6,114,41.7c1,1.3,2.6,2.2,4.5,2.8
		C1109.3,391.8,1113.5,333.6,1111.9,275.3z M1112.2,573.7c0-23.5-1-45.2-6.3-66.3c-5.5-22.1-15.6-41.2-37.1-51.7
		c-16.2-7.9-33.6-9.2-51.2-6.8c-19.4,2.6-34.5,12.2-44.2,29.1c-5.1,9-9.3,18.8-12.2,28.8c-8,27.2-8.4,55.1-7.2,83.2
		c0.8,19.2,3.5,38.1,10.2,56.3c8.4,22.8,23.1,39.1,47.8,44.4c14.2,3,28.5,2.5,42.6-0.5c20.6-4.3,35.5-16.1,44.4-35.1
		c2.5-5.2,4.5-10.8,6.1-16.3C1111.2,616.8,1112.4,594.3,1112.2,573.7z"/>
	<path d="M-219.6,302.5c-6.2,18.4-12,35.9-17.9,53.4c-37.6,112.3-75.1,224.7-112.7,337c-3.7,11.2-7.6,22.4-11.2,33.6
		c-1.1,3.4-2.5,4.7-6.2,4.6c-14.8-0.2-29.7-0.3-44.5,0c-4.6,0.1-6.5-1.3-8-5.7c-19.4-58.7-39-117.4-58.5-176.1
		c-26.8-80.5-53.6-161-80.4-241.4c-0.5-1.5-0.9-3.1-1.4-5.1c1.7-0.1,3-0.4,4.2-0.4c16.3,0,32.7,0.1,49-0.1c3.1,0,4.7,0.7,5.7,3.9
		c29.7,93.9,59.8,187.6,89.2,281.6c7.9,25.4,13.5,51.5,20.2,77.3c0.3,1.3,0.7,2.5,1.4,5.2c2.2-9.5,3.8-17.8,6.2-25.9
		c13.9-46.4,27.6-92.8,42.1-139c20.7-66.2,42-132.2,62.9-198.3c1.2-3.8,2.8-4.8,6.6-4.7C-255.4,302.6-237.9,302.5-219.6,302.5z"/>
	<path d="M514,580.5c-67.7,0-134.9,0-203.1,0c0.7,8.5,1.2,16.4,2.1,24.2c1.8,15.3,5.3,30.2,12.3,44c12.2,24.1,32.5,37.1,58.9,40.1
		c38.1,4.4,74.6-2.3,109.4-18.4c1.2-0.6,2.4-1.1,3.7-1.6c0.4-0.2,0.9-0.3,1.8-0.6c0.2,1.4,0.4,2.6,0.4,3.9c0,13.2,0.1,26.3-0.1,39.5
		c0,1.7-1.2,4.4-2.6,5.1c-45.7,21.2-93.4,27.1-142,13.6c-44.6-12.3-72.7-43.1-87.9-86.2c-10.2-29.1-12.1-59.2-10.5-89.7
		c1.5-27.7,7.1-54.5,19.4-79.4c19.3-38.9,49.5-63.7,93.2-70.2c67.2-10,122.5,27.1,138.9,92.8c4.1,16.2,5.9,32.7,6,49.4
		C514,558,514,569,514,580.5z M456.8,536.7c-1-9.7-1.5-19.1-2.9-28.4c-2.5-15.3-7.8-29.5-18.3-41.4c-22.1-25.3-67.9-23.5-89.9-6.1
		c-24.5,19.4-30.4,46.8-33.3,76C360.5,536.7,408.1,536.7,456.8,536.7z"/>
	<path d="M835,580.5c-67.7,0-134.9,0-202.6,0c0.6,21.4,3,41.9,11,61.4c10,24.4,27.8,39.7,53.6,45.6c14.5,3.3,29.1,3,43.7,2.1
		c26.4-1.6,51.5-8.5,75.4-19.7c1.3-0.6,2.7-1.1,4.7-1.9c0,11.6,0,22.7,0,33.8c0,14.2,0,14.2-13.3,19.7
		c-38.6,15.9-78.8,20.1-119.5,12c-52.9-10.6-85.8-44.2-101.9-94.9c-8.2-25.9-10-52.6-8.9-79.5c1.2-28.5,6.4-56.2,18.8-82.2
		c19.7-41,51.1-67,97.1-72.4c62.8-7.4,115.5,22.9,134.8,88.9c4.9,16.7,7.1,33.9,7.1,51.3C835,556.3,835,568.1,835,580.5z
		 M633.5,536.7c48.1,0,95.7,0,143.5,0c0.7-13.2-1-25.8-4.2-38.3c-12.9-49.7-72.2-68.4-110-34.4C641.4,483.2,636,509.3,633.5,536.7z"
		/>
	<path d="M45.2,731C8.5,623.5-28,516.7-64.7,409.2c11.1,0,21.2,0,31.3,0c6.7,0,13.3,0.2,20-0.1c3.3-0.1,4.5,1.1,5.5,4.2
		C3.9,449.7,15.7,486,27.6,522.4c16,49,32.2,98,44.9,148c2.1,8.2,4,16.4,6.3,25.8c1-1.9,1.7-2.9,2-3.9
		c12.2-54.1,29.3-106.8,46.6-159.4c13-39.5,25.8-79,38.6-118.6c1.2-3.8,2.8-5.2,6.9-5.1c16.5,0.3,33,0.1,50.1,0.1
		c-3.5,10.3-6.8,20.2-10.1,30c-32.3,94.4-64.5,188.9-96.8,283.3c-2.9,8.5-2.9,8.5-11.8,8.5C84.7,731,65,731,45.2,731z"/>
	<path d="M81.2,355.9c-4.5,0-9,0.1-13.5,0c-8.5-0.1-13.3-4.5-13.9-13.1c-3.2-48.1-19.4-91.5-49.2-129.2
		c-40.9-51.7-94.9-80.4-160.3-87.7c-3-0.3-6-0.5-9-0.8c-7.1-0.7-11.9-5.6-12.1-12.9c-0.2-9.5-0.2-19,0-28.5
		c0.1-8.4,6.2-13.8,14.7-13.3c47.6,2.7,92.2,15.9,132.6,41.3c74.6,46.8,120.1,113.7,135,200.8c1.7,9.7,2.3,19.5,3.1,29.3
		c0.6,7.8-5.1,13.8-13,14C90.8,356,86,355.9,81.2,355.9z"/>
	<path d="M-115.5,730.8c-17.9,0-35.3,0-53.2,0c0-107.1,0-214.1,0-321.4c17.7,0,35.3,0,53.2,0C-115.5,516.6-115.5,623.4-115.5,730.8z
		"/>
	<path d="M-21.8,355.9c-4.3,0-8.7,0.1-13,0c-7.8-0.2-12.5-4.2-13.4-12c-4.6-42-25.1-74.2-60-97.3c-15.8-10.5-33.4-16.2-52.2-18.8
		c-4.3-0.6-9-1.8-12.3-4.3c-2.4-1.9-3.8-6.3-4-9.6c-0.5-8.5-0.2-17-0.2-25.5c0.1-9.6,6.2-15.2,15.9-14C-89.6,183-38.8,220.1-9,285.5
		c7.9,17.3,11.9,35.6,13.8,54.5c1,9.6-4.5,15.7-14.1,15.9C-13.5,355.9-17.7,355.9-21.8,355.9z"/>
	<path d="M-110.5,320.7c0,20.1-8.3,31.7-24.5,34.7c-17.2,3.2-35.2-4.6-37.5-26c-0.5-4.8-0.6-9.7,0-14.4
		c2.4-17.4,13.8-26.6,31.8-26.2c17.3,0.4,28.3,10.6,30,27.9C-110.5,318.6-110.5,320.4-110.5,320.7z"/>
	<path class="st0" d="M1112.2,573.7c0.2,20.7-1,43.1-7.1,64.9c-1.6,5.6-3.6,11.1-6.1,16.3c-8.9,19.1-23.8,30.8-44.4,35.1
		c-14.2,3-28.4,3.5-42.6,0.5c-24.7-5.3-39.3-21.6-47.8-44.4c-6.7-18.1-9.3-37.1-10.2-56.3c-1.2-28-0.8-56,7.2-83.2
		c2.9-9.9,7.1-19.8,12.2-28.8c9.7-16.9,24.8-26.5,44.2-29.1c17.7-2.4,35-1.1,51.2,6.8c21.6,10.5,31.6,29.6,37.1,51.7
		C1111.2,528.5,1112.2,550.1,1112.2,573.7z"/>
	<path class="st0" d="M456.8,536.7c-48.7,0-96.2,0-144.4,0c2.9-29.2,8.8-56.6,33.3-76c22-17.4,67.8-19.1,89.9,6.1
		c10.5,12,15.8,26.1,18.3,41.4C455.3,517.6,455.8,527,456.8,536.7z"/>
	<path class="st0" d="M633.5,536.7c2.5-27.4,7.9-53.5,29.3-72.7c37.8-33.9,97.1-15.2,110,34.4c3.2,12.4,4.8,25.1,4.2,38.3
		C729.2,536.7,681.7,536.7,633.5,536.7z"/>
</g>
</svg>
